<svg width="37" height="22" viewBox="0 0 37 22" fill="none" xmlns="http://www.w3.org/2000/svg">
<path d="M1.0003 21.0932C1.30691 21.3885 1.66874 21.6203 2.06508 21.7756C2.46141 21.9308 2.88447 22.0063 3.31003 21.9978C3.73559 21.9894 4.15531 21.897 4.54514 21.7261C4.93498 21.5553 5.28729 21.3092 5.58189 21.0019L17.9382 8.14327L30.7969 20.4996C31.4166 21.095 32.2474 21.4199 33.1066 21.4028C33.9658 21.3857 34.783 21.028 35.3785 20.4083C35.9739 19.7886 36.2988 18.9578 36.2817 18.0986C36.2646 17.2394 35.9069 16.4222 35.2872 15.8267L20.0755 1.20932C19.7689 0.914081 19.4071 0.682212 19.0107 0.526986C18.6144 0.37176 18.1913 0.296228 17.7658 0.304706C17.3402 0.313185 16.9205 0.405508 16.5307 0.576397C16.1408 0.747286 15.7885 0.993383 15.4939 1.3006L0.876529 16.5123C-0.333626 17.7716 -0.292193 19.8512 1.0003 21.0932Z" fill="white"/>
</svg>
