<svg width="37" height="23" viewBox="0 0 37 23" fill="none" xmlns="http://www.w3.org/2000/svg">
<path d="M35.8308 1.62765C35.5193 1.33751 35.1537 1.11164 34.7549 0.962978C34.356 0.814313 33.9318 0.745768 33.5064 0.761268C33.0811 0.776768 32.6629 0.876008 32.276 1.05331C31.889 1.23061 31.5408 1.48248 31.2513 1.79452L19.1089 14.8553L6.04803 2.7129C5.41862 2.12775 4.58256 1.8166 3.72374 1.8479C2.86492 1.87919 2.05371 2.25037 1.46856 2.87977C0.883417 3.50917 0.572271 4.34525 0.603566 5.20406C0.63486 6.06288 1.00603 6.87409 1.63543 7.45923L17.0863 21.8236C17.3977 22.1138 17.7633 22.3396 18.1622 22.4883C18.561 22.637 18.9852 22.7055 19.4106 22.69C19.836 22.6745 20.2541 22.5753 20.6411 22.398C21.028 22.2207 21.3762 21.9688 21.6657 21.6567L36.0301 6.20592C37.2193 4.92677 37.1436 2.84815 35.8308 1.62765Z" fill="white"/>
</svg>
